# xmcd
#
# Track frame offsets: 
#        150
#        20775
#        35332
#        57407
#        79635
#        96625
#        108752
#        128077
#
# Disc length: 1939 seconds
#
# Revision: 0
# Processed by: cddbd v1.5.2PL0 Copyright (c) Steve Scherf et al.
# Submitted via: ExactAudioCopy v0.99pb5
#
DISCID=64079108
DTITLE=The Barrett Sisters - The Best of Barrett Sisters
DYEAR=1996
DGENRE=Gospel
TTITLE0=What A Friend
TTITLE1=I've Got A Feeling
TTITLE2=Up Where We Belong
TTITLE3=Come Sunday
TTITLE4=Fly Away
TTITLE5=Walk and Talk
TTITLE6=More Than Wonderful
TTITLE7=Count Your Blessings
EXTD=
EXTT0=
EXTT1=
EXTT2=
EXTT3=
EXTT4=
EXTT5=
EXTT6=
EXTT7=
PLAYORDER=
